<?xml version="1.0" encoding="UTF-8"?>
<svg id="Lag_1" xmlns="http://www.w3.org/2000/svg" version="1.1" viewBox="0 0 595.3 841.9">
  <!-- Generator: Adobe Illustrator 30.2.1, SVG Export Plug-In . SVG Version: 2.1.1 Build 1)  -->
  <defs>
    <style>
      .st0 {
        fill: #900;
      }
    </style>
  </defs>
  <path class="st0" d="M93.7,327.5h62.1c24.1,0,38.9-5.5,47.8-17,13.2-15.8,13.6-41.2,13.6-80.3v-53.3c0-39-.4-64.5-13.6-80.3-8.9-11.6-23.6-17-47.8-17h-62.1c-1.9,0-3,.6-3.8,1.4-.8.8-1.4,2-1.4,3.8v237.5c0,1.9.6,3,1.4,3.8.8.8,2,1.4,3.8,1.4ZM127.9,108.5h21.9c9.7,0,15.4,1.6,19.9,6.9,6.9,8.3,7.5,25,7.5,58.7v58.7c0,33.7-.6,50.4-7.5,58.7-4.5,5.4-10.3,6.9-19.9,6.9h-21.9V108.5Z"/>
  <path class="st0" d="M441.4,330.6c24.4,0,40.1-6.5,49.8-17.8,11.4-13.2,14.2-29,14.2-52.7V84.8c0-1.9-.6-3-1.4-3.8-.8-.8-1.9-1.4-3.8-1.4h-29.1c-1.9,0-3,.6-3.8,1.4-.8.8-1.4,2-1.4,3.8v175.4c0,18.3-1.4,29.2-7.3,35.7-4,4.4-9.7,6.6-17.7,6.6s-12.8-2-16.9-6.6c-5.6-6.2-7.3-16.7-7.3-35.7V84.8c0-1.9-.6-3-1.4-3.8-.8-.8-2-1.4-3.8-1.4h-29c-1.9,0-3,.6-3.8,1.4-.8.8-1.4,2-1.4,3.8v175.4c0,25.5,3.5,41.5,13.6,52.7,10.5,11.6,26.5,17.8,50.6,17.8Z"/>
  <path class="st0" d="M238.4,110.9h37.3v211.4c0,1.9.5,3,1.4,3.8.8.8,2,1.4,3.8,1.4h31.8c1.9,0,3-.6,3.8-1.4.8-.8,1.4-2,1.4-3.8V110.9h37.3c1.9,0,3-.6,3.8-1.4.8-.8,1.4-2,1.4-3.8v-20.9c0-1.9-.6-3-1.4-3.8-.8-.8-2-1.4-3.8-1.4h-116.8c-1.9,0-3,.6-3.8,1.4-.8.8-1.4,2-1.4,3.8v20.9c0,1.9.6,3,1.4,3.8.8.8,2,1.4,3.8,1.4Z"/>
  <path class="st0" d="M432.1,503.9l99.6-52.3-99.6-52.3c-129,50.2-139.9,50.2-268.9,0l-99.6,52.3,99.6,52.3c129-50.2,139.9-50.2,268.9,0Z"/>
  <path class="st0" d="M163.2,528.5l-99.6,52.3,99.6,52.3c129-50.2,139.9-50.2,268.9,0l99.6-52.3-99.6-52.3c-129,50.2-139.9,50.2-268.9,0Z"/>
  <path class="st0" d="M163.2,657.8l-99.6,52.3,99.6,52.3c129-50.2,139.9-50.2,268.9,0l99.6-52.3-99.6-52.3c-129,50.2-139.9,50.2-268.9,0Z"/>
</svg>